<svg xmlns="http://www.w3.org/2000/svg" width="180" height="26" fill="none">
  <path fill="#fff" d="M0 24.91c0-.6.522-1.088 1.167-1.088h25.666c.645 0 1.167.488 1.167 1.088s-.522 1.089-1.167 1.089H1.167C.522 25.999 0 25.51 0 24.91"/>
  <path fill="#fff" d="M2.333 9.104c0-.327.157-.636.428-.843L13.26.248c.762-.581 1.905-.076 1.905.842v23.822c0 .6-.522 1.088-1.166 1.088H3.5c-.645 0-1.167-.488-1.167-1.088z"/>
  <path fill="#fff" d="M17.5 8.287c0-.835.968-1.36 1.746-.945l5.833 3.11c.363.193.588.554.588.944v13.516c0 .6-.523 1.088-1.167 1.088h-5.833c-.645 0-1.167-.487-1.167-1.088z"/>
  <text x="34" y="19" fill="#fff" font-family="Urbanist, Inter, sans-serif" font-size="14.5px" font-weight="800" letter-spacing="0.04em">MAHESH VERSE</text>
</svg>
